<mxfile host="65bd71144e">
    <diagram id="81OLYhewOZMGTi1vEdpT" name="Page-1">
        <mxGraphModel dx="549" dy="281" grid="1" gridSize="5" guides="1" tooltips="1" connect="1" arrows="1" fold="1" page="1" pageScale="1" pageWidth="827" pageHeight="583" math="0" shadow="0">
            <root>
                <mxCell id="0"/>
                <mxCell id="28" value="page_frame (invisible)" style="locked=1;" parent="0"/>
                <mxCell id="27" value="" style="rounded=0;whiteSpace=wrap;html=1;fillColor=none;strokeColor=none;" parent="28" vertex="1">
                    <mxGeometry x="125" y="100" width="595" height="393" as="geometry"/>
                </mxCell>
                <mxCell id="26" value="diagram_frame" style="locked=1;" parent="0"/>
                <mxCell id="25" value="[bd] «system-under-consideration» WeSwitch" style="shape=umlFrame;whiteSpace=wrap;html=1;width=280;height=15;boundedLbl=1;verticalAlign=middle;align=left;spacingLeft=5;fillColor=none;" parent="26" vertex="1">
                    <mxGeometry x="130" y="108" width="580" height="380" as="geometry"/>
                </mxCell>
                <mxCell id="51" value="views" style="locked=1;" parent="0"/>
                <mxCell id="52" value="«view»&lt;br&gt;logical" style="rounded=0;whiteSpace=wrap;html=1;labelBackgroundColor=default;fontSize=10;fillColor=none;dashed=1;strokeColor=#B3B3B3;align=center;horizontal=0;labelPosition=center;verticalLabelPosition=middle;verticalAlign=bottom;fontColor=#B3B3B3;" parent="51" vertex="1">
                    <mxGeometry x="145" y="138" width="550" height="65" as="geometry"/>
                </mxCell>
                <mxCell id="53" value="«view»&lt;br&gt;technical" style="rounded=0;whiteSpace=wrap;html=1;labelBackgroundColor=default;fontSize=10;fillColor=none;dashed=1;strokeColor=#B3B3B3;align=center;horizontal=0;labelPosition=center;verticalLabelPosition=middle;verticalAlign=bottom;fontColor=#B3B3B3;" parent="51" vertex="1">
                    <mxGeometry x="145" y="208" width="550" height="265" as="geometry"/>
                </mxCell>
                <mxCell id="3" value="system_under_consideration_inner_elements_boundary" style="locked=1;" parent="0"/>
                <mxCell id="4" value="«system» WeSwitch" style="rounded=0;whiteSpace=wrap;html=1;fillColor=#f5f5f5;strokeWidth=2;align=left;verticalAlign=top;fontColor=#333333;strokeColor=#666666;fontSize=10;" parent="3" vertex="1">
                    <mxGeometry x="390" y="253" width="255" height="145" as="geometry"/>
                </mxCell>
                <mxCell id="12" value="&lt;span style=&quot;background-color: rgb(255, 255, 255); font-size: 10px;&quot;&gt;P_out&lt;/span&gt;" style="rounded=0;whiteSpace=wrap;html=1;strokeWidth=2;fillColor=#000000;verticalAlign=bottom;align=left;labelPosition=right;verticalLabelPosition=top;fontSize=10;" parent="3" vertex="1">
                    <mxGeometry x="580" y="243" width="20" height="20" as="geometry"/>
                </mxCell>
                <mxCell id="13" value="P_in" style="rounded=0;whiteSpace=wrap;html=1;strokeWidth=2;fillColor=#000000;verticalAlign=top;align=left;labelPosition=right;verticalLabelPosition=bottom;fontSize=10;" parent="3" vertex="1">
                    <mxGeometry x="580" y="388" width="20" height="20" as="geometry"/>
                </mxCell>
                <mxCell id="14" value="U_in&lt;br style=&quot;font-size: 10px;&quot;&gt;" style="rounded=0;whiteSpace=wrap;html=1;strokeWidth=2;fillColor=#000000;labelPosition=right;verticalLabelPosition=bottom;align=left;verticalAlign=top;fontSize=10;" parent="3" vertex="1">
                    <mxGeometry x="465" y="388" width="20" height="20" as="geometry"/>
                </mxCell>
                <mxCell id="15" value="SSH" style="rounded=0;whiteSpace=wrap;html=1;strokeWidth=2;fillColor=#000000;labelPosition=left;verticalLabelPosition=top;align=right;verticalAlign=middle;fontSize=10;" parent="3" vertex="1">
                    <mxGeometry x="380" y="315.5" width="20" height="20" as="geometry"/>
                </mxCell>
                <mxCell id="17" value="system_under_consideration_inner_elements" style="locked=1;" parent="0"/>
                <mxCell id="22" value="1..26" style="edgeStyle=orthogonalEdgeStyle;rounded=0;html=1;exitX=1;exitY=0.5;exitDx=0;exitDy=0;entryX=0;entryY=0.5;entryDx=0;entryDy=0;startArrow=box;startFill=0;endArrow=box;endFill=0;elbow=vertical;fontSize=10;labelBackgroundColor=none;" parent="17" edge="1">
                    <mxGeometry x="0.4545" y="-14" relative="1" as="geometry">
                        <mxPoint x="505" y="325.5" as="sourcePoint"/>
                        <mxPoint x="560" y="325.5" as="targetPoint"/>
                        <Array as="points">
                            <mxPoint x="545" y="325"/>
                            <mxPoint x="545" y="325"/>
                        </Array>
                        <mxPoint as="offset"/>
                    </mxGeometry>
                </mxCell>
                <mxCell id="54" value="GPIOs" style="edgeLabel;html=1;align=center;verticalAlign=middle;resizable=0;points=[];labelBackgroundColor=none;" vertex="1" connectable="0" parent="22">
                    <mxGeometry x="-0.2" y="1" relative="1" as="geometry">
                        <mxPoint x="-2" y="-15" as="offset"/>
                    </mxGeometry>
                </mxCell>
                <mxCell id="18" value="&lt;span style=&quot;color: rgb(51, 51, 51); text-align: left;&quot;&gt;&amp;nbsp;«host»&amp;nbsp;&lt;/span&gt;&lt;br&gt;RPI" style="rounded=0;whiteSpace=wrap;html=1;fillColor=none;fontSize=10;" parent="17" vertex="1">
                    <mxGeometry x="445" y="303" width="60" height="45" as="geometry"/>
                </mxCell>
                <mxCell id="24" style="edgeStyle=orthogonalEdgeStyle;rounded=0;html=1;entryX=0.5;entryY=0;entryDx=0;entryDy=0;startArrow=box;startFill=0;endArrow=none;endFill=0;elbow=vertical;fontSize=10;" parent="17" source="19" target="13" edge="1">
                    <mxGeometry relative="1" as="geometry"/>
                </mxCell>
                <mxCell id="19" value="Relais" style="rounded=0;whiteSpace=wrap;html=1;fillColor=none;fontSize=10;" parent="17" vertex="1">
                    <mxGeometry x="560" y="303" width="60" height="45" as="geometry"/>
                </mxCell>
                <mxCell id="20" style="edgeStyle=orthogonalEdgeStyle;html=1;rounded=0;endArrow=none;endFill=0;startArrow=box;startFill=0;fontSize=10;" parent="17" source="18" target="14" edge="1">
                    <mxGeometry relative="1" as="geometry"/>
                </mxCell>
                <mxCell id="21" style="edgeStyle=orthogonalEdgeStyle;rounded=0;html=1;startArrow=box;startFill=0;endArrow=none;endFill=0;elbow=vertical;exitX=0;exitY=0.5;exitDx=0;exitDy=0;fontSize=10;" parent="17" source="18" target="15" edge="1">
                    <mxGeometry relative="1" as="geometry"/>
                </mxCell>
                <mxCell id="23" style="edgeStyle=orthogonalEdgeStyle;rounded=0;html=1;startArrow=box;startFill=0;endArrow=none;endFill=0;elbow=vertical;entryX=0.5;entryY=1;entryDx=0;entryDy=0;fontSize=10;" parent="17" source="19" target="12" edge="1">
                    <mxGeometry relative="1" as="geometry"/>
                </mxCell>
                <mxCell id="29" value="neighbor_systems" style="locked=1;" parent="0"/>
                <mxCell id="30" value="«neighbor»&lt;br style=&quot;font-size: 10px;&quot;&gt;some_electrical_device" style="rounded=0;whiteSpace=wrap;html=1;fillColor=none;verticalAlign=middle;fontSize=10;" parent="29" vertex="1">
                    <mxGeometry x="535" y="150" width="110" height="45" as="geometry"/>
                </mxCell>
                <mxCell id="32" style="edgeStyle=none;html=1;entryX=0.5;entryY=1;entryDx=0;entryDy=0;endArrow=box;endFill=0;exitX=0.5;exitY=0;exitDx=0;exitDy=0;fontSize=10;" parent="29" source="12" target="30" edge="1">
                    <mxGeometry relative="1" as="geometry">
                        <mxPoint x="590" y="198" as="targetPoint"/>
                    </mxGeometry>
                </mxCell>
                <mxCell id="33" value="&lt;font style=&quot;font-size: 10px;&quot;&gt;«neighbor»&lt;br style=&quot;font-size: 10px;&quot;&gt;«host»&lt;br&gt;some_host&lt;br&gt;&lt;/font&gt;" style="rounded=0;whiteSpace=wrap;html=1;fillColor=none;verticalAlign=middle;fontSize=10;" parent="29" vertex="1">
                    <mxGeometry x="213" y="295.5" width="72" height="60" as="geometry"/>
                </mxCell>
                <mxCell id="36" style="edgeStyle=none;html=1;entryX=0;entryY=0.5;entryDx=0;entryDy=0;startArrow=box;startFill=0;endArrow=box;endFill=0;exitX=1;exitY=0.5;exitDx=0;exitDy=0;fontSize=10;" parent="29" source="33" target="41" edge="1">
                    <mxGeometry relative="1" as="geometry">
                        <mxPoint x="340" y="320.9348534201954" as="sourcePoint"/>
                    </mxGeometry>
                </mxCell>
                <mxCell id="45" value="pinctrl&lt;br&gt;over&lt;br&gt;SSH" style="edgeLabel;html=1;align=center;verticalAlign=middle;resizable=0;points=[];fontSize=10;" parent="36" vertex="1" connectable="0">
                    <mxGeometry x="-0.1442" relative="1" as="geometry">
                        <mxPoint x="3" y="-29" as="offset"/>
                    </mxGeometry>
                </mxCell>
                <mxCell id="38" style="edgeStyle=orthogonalEdgeStyle;html=1;startArrow=box;startFill=0;endArrow=none;endFill=0;rounded=0;exitX=0;exitY=0.5;exitDx=0;exitDy=0;fontSize=10;" parent="29" source="33" target="37" edge="1">
                    <mxGeometry relative="1" as="geometry"/>
                </mxCell>
                <mxCell id="48" style="edgeStyle=orthogonalEdgeStyle;html=1;entryX=0.25;entryY=0;entryDx=0;entryDy=0;fontSize=10;startArrow=none;startFill=0;endArrow=open;endFill=0;dashed=1;elbow=vertical;curved=1;" parent="29" source="37" target="19" edge="1">
                    <mxGeometry relative="1" as="geometry"/>
                </mxCell>
                <mxCell id="50" value="control remotely" style="edgeLabel;html=1;align=center;verticalAlign=middle;resizable=0;points=[];fontSize=10;" parent="48" vertex="1" connectable="0">
                    <mxGeometry x="-0.1693" y="2" relative="1" as="geometry">
                        <mxPoint x="-12" y="-1" as="offset"/>
                    </mxGeometry>
                </mxCell>
                <mxCell id="37" value="«actor»&lt;br&gt;«user»&lt;br&gt;some_user" style="shape=umlActor;verticalLabelPosition=bottom;verticalAlign=top;html=1;outlineConnect=0;fillColor=none;fontSize=10;labelBackgroundColor=default;" parent="29" vertex="1">
                    <mxGeometry x="165" y="145" width="30" height="55" as="geometry"/>
                </mxCell>
                <mxCell id="39" value="«neighbor»&amp;nbsp;domestic power supply&amp;nbsp;" style="rounded=0;whiteSpace=wrap;html=1;fillColor=none;verticalAlign=middle;points=[[0,0,0,0,0],[0,0.25,0,0,0],[0,0.5,0,0,0],[0,0.75,0,0,0],[0,1,0,0,0],[0.25,1,0,0,0],[0.31,0,0,0,0],[0.5,0,0,0,0],[0.5,1,0,0,0],[0.75,1,0,0,0],[0.79,0,0,0,0],[1,0,0,0,0],[1,0.25,0,0,0],[1,0.5,0,0,0],[1,0.75,0,0,0],[1,1,0,0,0]];fontSize=10;" parent="29" vertex="1">
                    <mxGeometry x="390" y="443" width="255" height="20" as="geometry"/>
                </mxCell>
                <mxCell id="42" style="edgeStyle=none;html=1;entryX=0;entryY=0.5;entryDx=0;entryDy=0;startArrow=box;startFill=0;endArrow=none;endFill=0;fontSize=10;" parent="29" source="41" target="15" edge="1">
                    <mxGeometry relative="1" as="geometry"/>
                </mxCell>
                <mxCell id="41" value="«neighbor» wired LAN" style="rounded=0;whiteSpace=wrap;html=1;fillColor=none;verticalAlign=middle;horizontal=0;fontSize=10;" parent="29" vertex="1">
                    <mxGeometry x="325" y="253" width="25" height="145" as="geometry"/>
                </mxCell>
                <mxCell id="43" style="edgeStyle=none;html=1;startArrow=box;startFill=0;endArrow=none;endFill=0;exitX=0.333;exitY=-0.008;exitDx=0;exitDy=0;exitPerimeter=0;fontSize=10;" parent="29" source="39" target="14" edge="1">
                    <mxGeometry relative="1" as="geometry"/>
                </mxCell>
                <mxCell id="44" style="edgeStyle=none;html=1;startArrow=box;startFill=0;endArrow=none;endFill=0;exitX=0.783;exitY=-0.016;exitDx=0;exitDy=0;exitPerimeter=0;fontSize=10;" parent="29" source="39" target="13" edge="1">
                    <mxGeometry relative="1" as="geometry"/>
                </mxCell>
            </root>
        </mxGraphModel>
    </diagram>
</mxfile>
